<svg width="260" height="45" viewBox="0 0 260 45" fill="none" xmlns="http://www.w3.org/2000/svg">
<g clip-path="url(#clip0_1_2)">
<path fill-rule="evenodd" clip-rule="evenodd" d="M30.6446 10.7595C30.6446 16.7018 19.8851 31.8878 19.8851 31.8878C19.8851 31.8878 9.12564 16.7018 9.12564 10.7595C9.12564 4.8172 13.9428 0 19.8851 0C25.8274 0 30.6446 4.8172 30.6446 10.7595ZM19.8852 15.0299C22.1717 15.0299 24.0252 13.1764 24.0252 10.8899C24.0252 8.60339 22.1717 6.74982 19.8852 6.74982C17.5987 6.74982 15.7451 8.60339 15.7451 10.8899C15.7451 13.1764 17.5987 15.0299 19.8852 15.0299Z" fill="white"/>
<path d="M8.15633 6.79178C4.10675 8.54237 1.17664 12.3226 0.612623 16.8857C0.279122 19.584 0 22.5852 0 25.1148C0 27.6445 0.279122 30.6457 0.612623 33.344C1.32887 39.1389 5.86111 43.6711 11.656 44.3874C14.3543 44.7209 17.3555 45 19.8852 45C22.4148 45 25.416 44.7209 28.1143 44.3874C33.9092 43.6711 38.4415 39.1389 39.1577 33.344C39.4912 30.6457 39.7703 27.6445 39.7703 25.1148C39.7703 22.5852 39.4912 19.584 39.1577 16.8857C38.5937 12.3226 35.6636 8.54243 31.6141 6.79181C32.1752 8.16635 32.4833 9.66341 32.4833 11.2298C32.4833 11.5206 32.4596 11.8311 32.4142 12.159C33.849 13.4958 34.8191 15.3229 35.0746 17.3904C35.4011 20.0321 35.6562 22.8375 35.6562 25.1148C35.6562 26.6439 35.5412 28.411 35.3668 30.2068C34.695 27.9022 32.9886 25.9222 30.736 24.4508C29.7449 23.8035 28.6343 23.2435 27.4306 22.7853C27.0402 23.4585 26.6419 24.127 26.242 24.7836C27.4473 25.2108 28.5392 25.746 29.486 26.3645C32.019 28.019 33.3932 30.1726 33.3932 32.3857C33.3932 34.5987 32.019 36.7523 29.486 38.4069C27.8687 39.4633 25.828 40.2767 23.5222 40.7245C22.2376 40.8249 20.9983 40.8858 19.8852 40.8858C18.3222 40.8858 16.5106 40.7657 14.6738 40.5848C12.638 40.1175 10.8311 39.3614 9.36981 38.4069C6.83676 36.7523 5.46257 34.5987 5.46257 32.3857C5.46257 30.1726 6.83676 28.019 9.36981 26.3645C10.4148 25.6819 11.6366 25.1007 12.9924 24.6541C12.5915 23.9939 12.1926 23.3222 11.8021 22.6463C10.4529 23.1284 9.21356 23.7365 8.11987 24.4508C6.47558 25.5249 5.12229 26.8699 4.25 28.4144C4.16487 27.2504 4.11417 26.1301 4.11417 25.1148C4.11417 22.8375 4.36922 20.0321 4.69574 17.3904C4.95129 15.3229 5.92141 13.4958 7.35622 12.159C7.31082 11.8311 7.28708 11.5206 7.28708 11.2298C7.28708 9.66338 7.59522 8.16635 8.15633 6.79178Z" fill="white"/>
<path d="M13.6656 25.7496C13.0534 26.0125 12.4809 26.3172 11.9569 26.6595C10.0039 27.9352 8.60334 29.8297 8.60334 32.088C8.60334 34.3462 10.0039 36.2408 11.9569 37.5164C13.9202 38.7988 16.5648 39.5547 19.4278 39.5547C22.2909 39.5547 24.9355 38.7988 26.8988 37.5164C28.8518 36.2408 30.2523 34.3462 30.2523 32.088C30.2523 29.8297 28.8518 27.9352 26.8988 26.6595C26.4781 26.3847 26.0262 26.1342 25.5476 25.91C25.1299 26.5798 24.7146 27.2321 24.3091 27.8589C24.7963 28.0694 25.245 28.3093 25.6488 28.5731C27.1998 29.5862 27.9666 30.8536 27.9666 32.088C27.9666 33.3222 27.1998 34.5897 25.6488 35.6028C24.108 36.6092 21.9118 37.269 19.4278 37.269C16.9438 37.269 14.7476 36.6092 13.2068 35.6028C11.6558 34.5897 10.889 33.3222 10.889 32.088C10.889 30.8536 11.6558 29.5862 13.2068 28.5731C13.7087 28.2453 14.2801 27.9542 14.9084 27.7108C14.5009 27.0793 14.0842 26.4228 13.6656 25.7496Z" fill="white"/>
<path d="M15.7019 28.9277C14.773 29.5648 14.0291 30.5497 14.0291 31.7889C14.0291 33.0686 14.8223 34.0771 15.7935 34.7114C16.7749 35.3524 18.063 35.7116 19.4278 35.7116C20.7925 35.7116 22.0807 35.3524 23.0621 34.7114C24.0333 34.0771 24.8265 33.0686 24.8265 31.7889C24.8265 30.6895 24.241 29.7903 23.4602 29.1565C23.0078 29.8406 22.5759 30.4821 22.1762 31.0683C22.4532 31.3409 22.5408 31.5994 22.5408 31.7889C22.5408 32.0445 22.3814 32.426 21.8122 32.7978C21.2533 33.1628 20.4135 33.426 19.4278 33.426C18.4421 33.426 17.6023 33.1628 17.0434 32.7978C16.4742 32.426 16.3147 32.0445 16.3147 31.7889C16.3147 31.5441 16.461 31.184 16.9731 30.8275C16.5749 30.2413 16.1475 29.604 15.7019 28.9277Z" fill="white"/>
<path d="M61.537 26.724L57.351 21.296C60.065 20.1 60.755 18.421 60.755 16.443C60.755 13.545 58.616 10.9 54.499 10.9H46.633V27H51.187V21.779H52.774L56.523 27H61.537V26.724ZM54.499 14.534C55.695 14.534 56.27 15.523 56.27 16.535C56.27 17.501 55.741 18.398 54.545 18.398H51.187V14.534H54.499ZM62.7476 15.638V21.94C62.7476 25.988 64.7946 27.253 67.1866 27.276C68.3826 27.299 69.8086 26.885 70.7746 25.758L70.9586 27H74.7076V15.638H70.5216V21.687C70.5216 23.182 69.5786 23.803 68.5666 23.803C67.7846 23.803 66.9796 23.32 66.9796 21.917V15.638H62.7476ZM76.9402 12.717C76.9402 14.12 78.1362 14.833 79.3322 14.833C80.5052 14.833 81.7012 14.12 81.7012 12.717C81.7012 11.291 80.5052 10.578 79.3322 10.578C78.1362 10.578 76.9402 11.291 76.9402 12.717ZM77.1932 27V15.822H81.4482V27H77.1932ZM83.1265 25.804C84.4145 26.747 86.6455 27.299 88.6235 27.299C91.3605 27.299 93.9135 26.241 93.9135 23.435C93.9135 20.422 91.0615 19.755 88.6925 19.686C88.0025 19.663 87.8415 19.341 87.8415 19.134C87.8415 18.72 88.2555 18.582 88.8535 18.582C89.7735 18.559 91.0845 18.881 91.7055 19.272L93.4995 16.742C92.3955 15.914 90.6935 15.362 88.8535 15.362C86.1855 15.362 83.6095 16.351 83.6095 19.088C83.6095 21.848 86.2775 22.745 88.4855 22.814C89.3135 22.883 89.6815 23.067 89.6815 23.435C89.6815 23.803 89.2905 23.987 88.5315 23.987C87.6115 23.941 86.2315 23.849 84.5065 22.722L83.1265 25.804ZM103.752 16.604C103.131 15.845 102.05 15.385 100.601 15.385C97.2885 15.385 95.0805 17.846 95.0805 21.319C95.0805 24.907 96.9435 27 100.279 27.207C101.544 27.276 103.062 26.885 104.028 25.781L104.212 27H107.984V10.9H103.752V16.604ZM101.567 18.812C103.062 18.812 103.844 20.054 103.844 21.434C103.844 22.63 102.993 23.803 101.567 23.803C100.302 23.803 99.2895 22.906 99.2895 21.319C99.2895 19.732 100.302 18.812 101.567 18.812ZM118.692 16.857C118.094 15.937 116.967 15.385 115.357 15.385C112.045 15.385 109.837 17.961 109.837 21.319C109.837 24.631 111.7 27 115.035 27.207C116.3 27.276 117.818 26.885 118.784 25.781L118.968 27H122.878V15.638H118.899L118.692 16.857ZM116.323 18.812C117.818 18.812 118.669 19.801 118.669 21.319C118.669 22.653 117.749 23.803 116.323 23.803C115.058 23.803 114.046 22.906 114.046 21.319C114.046 19.732 115.058 18.812 116.323 18.812ZM129.052 19.801C129.328 17.938 133.054 18.007 133.169 19.801H129.052ZM131.076 15.362C127.994 15.362 124.751 17.202 124.751 21.342C124.751 25.482 127.787 27.253 131.375 27.253C133.33 27.253 135.193 26.632 136.55 25.367L134.48 23.044C133.744 23.596 132.801 23.964 131.559 23.964C130.639 23.964 129.328 23.527 129.029 22.515H136.964C137.93 18.03 135.101 15.362 131.076 15.362ZM138.938 10.877V27H143.124V10.877H138.938ZM166.318 10.9H161.281L159.441 15.73L157.394 21.687L155.37 15.73L153.53 10.9H148.493L155.186 27.069H159.625L166.318 10.9ZM167.009 12.717C167.009 14.12 168.205 14.833 169.401 14.833C170.574 14.833 171.77 14.12 171.77 12.717C171.77 11.291 170.574 10.578 169.401 10.578C168.205 10.578 167.009 11.291 167.009 12.717ZM167.262 27V15.822H171.517V27H167.262ZM173.195 25.804C174.483 26.747 176.714 27.299 178.692 27.299C181.429 27.299 183.982 26.241 183.982 23.435C183.982 20.422 181.13 19.755 178.761 19.686C178.071 19.663 177.91 19.341 177.91 19.134C177.91 18.72 178.324 18.582 178.922 18.582C179.842 18.559 181.153 18.881 181.774 19.272L183.568 16.742C182.464 15.914 180.762 15.362 178.922 15.362C176.254 15.362 173.678 16.351 173.678 19.088C173.678 21.848 176.346 22.745 178.554 22.814C179.382 22.883 179.75 23.067 179.75 23.435C179.75 23.803 179.359 23.987 178.6 23.987C177.68 23.941 176.3 23.849 174.575 22.722L173.195 25.804ZM185.609 15.638V21.94C185.609 25.988 187.656 27.253 190.048 27.276C191.244 27.299 192.67 26.885 193.636 25.758L193.82 27H197.569V15.638H193.383V21.687C193.383 23.182 192.44 23.803 191.428 23.803C190.646 23.803 189.841 23.32 189.841 21.917V15.638H185.609ZM208.289 16.857C207.691 15.937 206.564 15.385 204.954 15.385C201.642 15.385 199.434 17.961 199.434 21.319C199.434 24.631 201.297 27 204.632 27.207C205.897 27.276 207.415 26.885 208.381 25.781L208.565 27H212.475V15.638H208.496L208.289 16.857ZM205.92 18.812C207.415 18.812 208.266 19.801 208.266 21.319C208.266 22.653 207.346 23.803 205.92 23.803C204.655 23.803 203.643 22.906 203.643 21.319C203.643 19.732 204.655 18.812 205.92 18.812ZM214.969 10.877V27H219.155V10.877H214.969ZM221.386 12.717C221.386 14.12 222.582 14.833 223.778 14.833C224.951 14.833 226.147 14.12 226.147 12.717C226.147 11.291 224.951 10.578 223.778 10.578C222.582 10.578 221.386 11.291 221.386 12.717ZM221.639 27V15.822H225.894V27H221.639ZM228.102 15.638V18.996H232.196L227.665 25.689V27H237.808V23.366H233.277L237.601 17.064V15.638H228.102ZM243.333 19.801C243.609 17.938 247.335 18.007 247.45 19.801H243.333ZM245.357 15.362C242.275 15.362 239.032 17.202 239.032 21.342C239.032 25.482 242.068 27.253 245.656 27.253C247.611 27.253 249.474 26.632 250.831 25.367L248.761 23.044C248.025 23.596 247.082 23.964 245.84 23.964C244.92 23.964 243.609 23.527 243.31 22.515H251.245C252.211 18.03 249.382 15.362 245.357 15.362ZM253.22 15.638V27H257.452V21.089C257.452 19.594 258.349 18.95 259.407 18.95C260.12 18.95 260.626 19.088 261.316 19.64L263.018 16.581C262.282 15.799 261.178 15.362 260.028 15.362C258.924 15.362 257.866 15.822 257.268 16.88L257.015 15.638H253.22Z" fill="white"/>
</g>
<defs>
<clipPath id="clip0_1_2">
<rect width="260" height="45" fill="white"/>
</clipPath>
</defs>
</svg>
